<svg width="100" height="69" viewBox="0 0 100 69" fill="none" xmlns="http://www.w3.org/2000/svg">
<path d="M0.104782 0.430565H5.93627V2.87682H3.69828V8.86363H5.5215V11.2711H3.69828V18.1315H0.104782V0.430565Z" fill="#F4EB28"/>
<path d="M10.6875 18.1333L10.428 11.7423H9.9462V18.1333H6.52214V0.430565H10.1792C11.0299 0.430565 11.7341 0.511754 12.2936 0.670602C12.8531 0.831215 13.2891 1.12244 13.6015 1.5425C13.9139 1.96257 14.0709 2.5556 14.0709 3.31983V9.09837C14.0709 9.94909 13.8186 10.5862 13.3155 11.0116L14.0957 18.1315H10.6857L10.6875 18.1333ZM10.5957 9.61374C10.6557 9.53079 10.6875 9.38959 10.6875 9.19015V3.42573C10.6875 3.23511 10.6575 3.10274 10.5957 3.02861C10.5357 2.95448 10.4263 2.91742 10.271 2.91742H9.9462V9.73729H10.2851C10.4333 9.73729 10.5375 9.6967 10.5975 9.61374H10.5957Z" fill="#F4EB28"/>
<path d="M14.7076 0.430565H20.5903V2.87682H18.3382V8.42238H20.1208V10.2703H18.3382V15.7506H20.6291V18.1333H14.7059V0.430565H14.7076Z" fill="#F4EB28"/>
<path d="M21.086 0.430565H26.9686V2.87682H24.7165V8.42238H26.4992V10.2703H24.7165V15.7506H27.0075V18.1333H21.086V0.430565Z" fill="#F4EB28"/>
<path d="M27.4646 0.430565H31.3176C32.636 0.430565 33.6315 0.732376 34.3039 1.33423C34.9764 1.93786 35.3135 2.82917 35.3135 4.00994V14.5398C35.3135 15.7294 34.9764 16.6242 34.3039 17.2279C33.6315 17.8315 32.6395 18.1315 31.3299 18.1315H27.4646V0.430565ZM31.2646 15.2828C31.4288 15.2828 31.54 15.2334 31.5964 15.1328C31.6529 15.034 31.6812 14.8398 31.6812 14.5539V4.03641C31.6812 3.74166 31.6529 3.54222 31.5964 3.43809C31.54 3.33395 31.4288 3.28277 31.2646 3.28277H30.9399V15.2846H31.2646V15.2828Z" fill="#F4EB28"/>
<path d="M35.8345 7.44644C35.8345 4.99136 36.5246 3.13636 37.9048 1.88147C39.285 0.628332 41.3289 0 44.0364 0C46.7438 0 48.7877 0.630097 50.1679 1.88676C51.5481 3.14519 52.2382 5.00548 52.2382 7.47115V11.0382C52.2382 13.5197 51.5481 15.3941 50.1679 16.6614C48.7877 17.9286 46.7438 18.5623 44.0364 18.5623C41.3289 18.5623 39.3009 17.9286 37.926 16.6614C36.5511 15.3941 35.8539 13.5197 35.8363 11.0382V7.44644H35.8345ZM44.0346 12.4201C44.2782 12.4201 44.3982 12.2948 44.3982 12.0424V6.45805C44.3982 6.20566 44.2764 6.08035 44.0346 6.08035C43.7928 6.08035 43.6693 6.20566 43.6693 6.45805V12.0424C43.6693 12.2948 43.791 12.4201 44.0346 12.4201Z" fill="#F4EB28"/>
<path d="M52.8087 0.430565H62.0378L62.5708 9.64551H62.8832L63.4303 0.430565H72.6594V18.1333H66.2561L67.2974 8.78773H66.9462L65.3965 18.1333H60.0734L58.499 8.78773H58.1601L59.2138 18.1333H52.8105V0.430565H52.8087Z" fill="#F4EB28"/>
<path d="M2.07032 39.3643C0.690106 38.097 0 36.2226 0 33.741V30.174C0 27.7101 0.690106 25.8481 2.07032 24.5896C3.45053 23.3312 5.48908 22.7029 8.18773 22.7029C10.8864 22.7029 12.8473 23.3083 14.2275 24.519C15.6077 25.7298 16.3278 27.5195 16.3878 29.8881V31.5807L8.55132 31.5931V29.1592C8.55132 28.9068 8.426 28.7814 8.17361 28.7814C7.92122 28.7814 7.7959 28.9068 7.7959 29.1592V34.7435C7.7959 34.9959 7.92122 35.1212 8.17361 35.1212C8.426 35.1212 8.55132 34.9959 8.55132 34.7435V32.3749H16.3878V34.0534C16.319 36.4309 15.5918 38.2276 14.2081 39.4419C12.8243 40.6562 10.8175 41.2634 8.18773 41.2634C5.55791 41.2634 3.45053 40.6297 2.07032 39.3625V39.3643Z" fill="#F4EB28"/>
<path d="M16.7508 30.1493C16.7508 27.6942 17.4409 25.8392 18.8211 24.5843C20.2013 23.3312 22.2451 22.7029 24.9526 22.7029C27.6601 22.7029 29.7039 23.333 31.0841 24.5896C32.4644 25.8481 33.1545 27.7083 33.1545 30.174V33.741C33.1545 36.2226 32.4644 38.097 31.0841 39.3643C29.7039 40.6315 27.6601 41.2651 24.9526 41.2651C22.2451 41.2651 20.2172 40.6315 18.8423 39.3643C17.4673 38.097 16.7702 36.2226 16.7525 33.741V30.1493H16.7508ZM24.9526 35.1212C25.1962 35.1212 25.3162 34.9959 25.3162 34.7435V29.1592C25.3162 28.9068 25.1944 28.7814 24.9526 28.7814C24.7108 28.7814 24.5873 28.9068 24.5873 29.1592V34.7435C24.5873 34.9959 24.709 35.1212 24.9526 35.1212Z" fill="#F4EB28"/>
<path d="M33.7248 23.1334H41.6778L42.0679 25.0996L43.0968 31.0864L43.4481 31.0599L42.5497 23.1334H49.0183V40.8362H41.053L40.6753 38.9617L39.3992 31.5171L39.0603 31.5047L40.1281 40.8379H33.7248V23.1352V23.1334Z" fill="#F4EB28"/>
<path d="M49.6965 23.1335H61.3719V28.0542H57.2718V30.4617H60.5653V35.2906H57.2718V40.8221L49.6965 40.8344V23.1317V23.1335Z" fill="#F4EB28"/>
<path d="M66.1492 40.8344L65.8898 34.4435H65.408V40.8344H61.9839V23.1317H65.6409C66.4917 23.1317 67.1959 23.2129 67.7554 23.3718C68.3149 23.5324 68.7508 23.8236 69.0632 24.2437C69.3756 24.6637 69.5327 25.2568 69.5327 26.021V31.7995C69.5327 32.6502 69.2803 33.2874 68.7773 33.7128L69.5574 40.8327H66.1475L66.1492 40.8344ZM66.0575 32.3149C66.1175 32.2319 66.1492 32.0907 66.1492 31.8913V26.1251C66.1492 25.9345 66.1192 25.8021 66.0575 25.728C65.9975 25.6539 65.888 25.6168 65.7327 25.6168H65.408V32.4367H65.7468C65.8951 32.4367 65.9992 32.3961 66.0592 32.3131L66.0575 32.3149Z" fill="#F4EB28"/>
<path d="M70.1707 23.1334H76.0533V25.5797H73.8012V31.1252H75.5839V32.9732H73.8012V38.4534H76.0922V40.8362H70.1689V23.1334H70.1707Z" fill="#F4EB28"/>
<path d="M76.5489 23.1334H80.2977L80.6101 25.6062L81.4308 34.2757H81.6126L81.0919 23.1334H84.2036V40.8362H80.4548L80.1424 38.4023L79.2175 29.1079L79.0357 29.0955L79.6341 40.8362H76.5489V23.1334Z" fill="#F4EB28"/>
<path d="M85.8431 40.1392C85.1583 39.502 84.8141 38.5613 84.8141 37.3205V26.6336C84.8141 25.3928 85.1565 24.4573 85.8431 23.829C86.5279 23.2007 87.5392 22.8847 88.8753 22.8847C90.2114 22.8847 91.1945 23.1883 91.8758 23.7955C92.5571 24.4026 92.9154 25.3098 92.9489 26.5153V31.579H89.2389V26.2029C89.2389 25.9505 89.1171 25.8252 88.8736 25.8252C88.63 25.8252 88.4959 25.9505 88.4959 26.2029V37.7476C88.4959 38 88.6212 38.1253 88.8736 38.1253C89.126 38.1253 89.2389 38 89.2389 37.7476V32.3856H92.9489V37.4493C92.9048 38.6548 92.5429 39.5638 91.8617 40.1762C91.1804 40.7887 90.1849 41.094 88.8753 41.094C87.5657 41.094 86.5279 40.7746 85.8431 40.1374V40.1392Z" fill="#F4EB28"/>
<path d="M93.5616 23.1334H99.4443V25.5797H97.1922V31.1252H98.9748V32.9732H97.1922V38.4534H99.4831V40.8362H93.5616V23.1334Z" fill="#F4EB28"/>
<path d="M0.99147 43.5314H2.44405V54.5236C3.19769 54.5554 3.89486 54.483 4.53378 54.3065C5.17447 54.1283 5.76926 53.8494 6.31817 53.4664C6.86708 53.0852 7.35068 52.6863 7.77075 52.2715C8.19081 51.8567 8.65324 51.3378 9.15979 50.713L7.12653 54.716H0.99147V43.5296V43.5314Z" fill="#F4EB28"/>
<path d="M10.5309 52.0685C9.93964 53.2193 9.95023 54.1018 10.5627 54.716H8.85242L13.8402 44.6115C13.7114 44.4174 13.4414 44.2144 13.0336 43.9973C12.6242 43.782 12.3771 43.6267 12.2906 43.5296H14.9063L20.7007 54.716H18.941L16.8742 50.6319H11.2245L10.5309 52.0685ZM13.985 44.8869L11.3375 50.3918H16.7613L13.985 44.8869Z" fill="#F4EB28"/>
<path d="M20.3469 49.1792C20.3469 48.4149 20.4687 47.7107 20.7105 47.0647C20.9523 46.4187 21.2841 45.8787 21.7024 45.4427C22.1225 45.0068 22.6149 44.6273 23.1797 44.3043C23.7445 43.9813 24.3516 43.7536 25.0029 43.6177C25.6542 43.4836 26.3284 43.3953 27.0291 43.3512C27.728 43.3089 28.427 43.3565 29.1277 43.4959C29.4612 43.5612 29.7895 43.6407 30.1125 43.7377C30.4355 43.8348 30.7497 43.939 31.0568 44.0519C31.3639 44.1649 31.5439 44.2319 31.5969 44.2531L31.678 47.0612C31.3656 46.1681 30.905 45.4339 30.2978 44.8585C29.6889 44.2831 29.0323 43.8984 28.3281 43.7042C27.6239 43.5101 26.8967 43.4854 26.1484 43.6318C25.4 43.7766 24.7258 44.0731 24.1222 44.5196C23.5186 44.9662 23.0244 45.5963 22.6378 46.4082C22.2495 47.22 22.0572 48.1431 22.0572 49.1756C22.0572 50.7359 22.4278 52.0225 23.1709 53.0339C23.9139 54.0452 24.9305 54.5729 26.2225 54.6153C27.1262 54.6047 28.0404 54.1158 28.967 53.1468L28.9829 49.338L24.3181 49.2251V49.0644L30.4514 48.9833V54.6965C30.3437 54.2023 30.1372 53.8193 29.8301 53.551C29.523 53.2827 29.2353 53.2492 28.967 53.4539C28.0951 54.4017 27.1809 54.8853 26.2225 54.9065C24.5228 54.8748 23.1179 54.3064 22.0095 53.2033C20.9011 52.1002 20.3469 50.7571 20.3469 49.1756V49.1792Z" fill="#F4EB28"/>
<path d="M44.4115 48.6305C44.5827 50.2349 44.1503 51.6416 43.1125 52.8523C42.0747 54.0631 40.7422 54.732 39.1184 54.8626C37.4822 54.9809 36.0332 54.5238 34.7677 53.4913C33.504 52.4587 32.7856 51.1403 32.6127 49.5359C32.4521 47.9439 32.8915 46.539 33.9364 45.3229C34.9795 44.1069 36.3138 43.4344 37.9394 43.3056C39.5649 43.1873 41.0087 43.648 42.2742 44.6858C43.5379 45.7236 44.2509 47.0403 44.4133 48.6323L44.4115 48.6305ZM43.3473 48.6305C43.4973 47.1991 43.1213 45.9972 42.2177 45.0229C41.314 44.0486 40.2921 43.6109 39.1501 43.708C37.8917 43.8051 36.718 44.4052 35.6308 45.5083C34.5436 46.6114 33.9205 47.8945 33.7581 49.3577C33.5975 50.8103 33.9293 52.0352 34.7589 53.0306C35.5867 54.0261 36.5609 54.4744 37.6799 54.379C38.9825 54.282 40.2091 53.666 41.3599 52.5311C42.5107 51.3962 43.1725 50.0972 43.3455 48.6323L43.3473 48.6305Z" fill="#F4EB28"/>
<path d="M50.4983 54.9418C50.1965 54.9418 49.907 54.9365 49.6264 54.926C49.3458 54.9154 49.1075 54.9048 48.9081 54.8942C48.7086 54.8836 48.4915 54.8571 48.255 54.813C48.0185 54.7706 47.8438 54.7406 47.7308 54.7247C47.6179 54.7089 47.4502 54.6665 47.2313 54.5959C47.0107 54.5253 46.8677 54.4829 46.8042 54.4671C46.7389 54.4512 46.5889 54.4 46.3524 54.3135C46.1159 54.227 45.9764 54.1794 45.9323 54.1688L45.4152 49.8428H45.5122C45.5881 50.5965 45.7382 51.2601 45.9641 51.8355C46.19 52.4109 46.4618 52.8786 46.7795 53.2404C47.0972 53.6005 47.4661 53.897 47.8844 54.1282C48.3044 54.3594 48.7263 54.5182 49.1516 54.6047C49.577 54.6912 50.0253 54.7283 50.5001 54.7177C51.0384 54.7071 51.5026 54.6347 51.8962 54.5006C52.288 54.3665 52.5827 54.1882 52.7751 53.9676C52.9693 53.747 53.1087 53.5316 53.1952 53.3216C53.2817 53.1116 53.324 52.8998 53.324 52.6844C53.324 52.2873 53.1846 51.929 52.904 51.6113C52.6233 51.2936 52.258 51.0218 51.8061 50.7959C51.3543 50.57 50.8566 50.3547 50.313 50.1499C49.7694 49.9452 49.224 49.7299 48.6751 49.5039C48.1262 49.278 47.6231 49.0309 47.166 48.7609C46.7089 48.4926 46.3365 48.1537 46.0523 47.7443C45.7664 47.3348 45.6181 46.8724 45.6093 46.3552C45.6093 46.1505 45.6358 45.9352 45.6905 45.7092C45.7434 45.4833 45.8617 45.2309 46.0453 44.9503C46.2288 44.6714 46.4618 44.4208 46.7477 44.2002C47.0336 43.9796 47.4308 43.789 47.9426 43.6266C48.4545 43.466 49.0422 43.3742 49.7094 43.353C50.3553 43.3318 51.0296 43.3459 51.7355 43.3936C52.4398 43.4413 52.9869 43.4924 53.3734 43.5471L53.9541 43.6442L54.406 47.4054H54.3248C54.2595 46.6853 54.0847 46.1134 53.8006 45.6951C53.5146 45.2751 53.1034 44.8938 52.5651 44.5497C51.8008 44.0555 50.929 43.7537 49.9494 43.646C48.9698 43.5383 48.1332 43.6548 47.4396 43.9937C46.746 44.3326 46.4088 44.8303 46.43 45.4869C46.4512 46.0781 46.7371 46.5759 47.286 46.98C47.8349 47.3842 48.4915 47.7143 49.2558 47.9719C50.02 48.2296 50.7842 48.4997 51.5485 48.7785C52.3127 49.0592 52.9657 49.4563 53.5093 49.9734C54.053 50.4906 54.3301 51.126 54.3407 51.8778C54.3512 52.8998 53.9965 53.6622 53.2746 54.1617C52.5545 54.6612 51.6279 54.9224 50.4983 54.9454V54.9418Z" fill="#F4EB28"/>
<path d="M0.250977 68.5976C0.35864 67.6834 0.461009 67.048 0.558083 66.6932C0.729285 66.0472 1.00462 65.4913 1.38056 65.0235C1.7565 64.5558 2.18186 64.1781 2.65488 63.8939C3.12789 63.6098 3.60443 63.3503 4.08274 63.1191C4.56105 62.8879 5.05171 62.6196 5.5512 62.3125C6.05069 62.0054 6.45311 61.6648 6.75315 61.2871C7.54916 60.4364 7.7486 59.598 7.34971 58.7685C7.03731 58.1119 6.46193 57.66 5.6218 57.4129C4.56635 57.1111 3.57796 57.2576 2.65135 57.8489C1.73709 58.4296 1.06993 59.3721 0.649861 60.6729V58.1066C1.26407 57.5683 2.11303 57.2329 3.20025 57.097C4.28748 56.9629 5.3447 57.0758 6.37192 57.4359C7.39913 57.796 8.11219 58.359 8.51107 59.1232C8.53225 59.155 8.56402 59.2044 8.60814 59.2679C8.6505 59.3332 8.71051 59.4674 8.78641 59.6721C8.8623 59.8769 8.90819 60.0834 8.92408 60.2934C8.93996 60.5034 8.90996 60.7593 8.83583 61.0594C8.75993 61.3612 8.62579 61.6507 8.43165 61.9313C8.14042 62.3408 7.71507 62.722 7.15733 63.0768C6.59783 63.4315 6.00833 63.7527 5.39059 64.0369C4.77108 64.3228 4.14452 64.637 3.51089 64.9812C2.8755 65.3253 2.27364 65.786 1.70355 66.3614C1.13347 66.9368 0.681631 67.6022 0.34805 68.354H4.44809C5.28822 68.354 6.11776 68.0964 6.94201 67.5792C7.76448 67.0621 8.3381 66.3949 8.66109 65.5777H8.74228L8.03276 68.5958H0.250977V68.5976Z" fill="#F4EB28"/>
<path d="M18.4966 58.7684C19.4602 59.9085 19.9403 61.287 19.9403 62.9002C19.9403 64.5134 19.4585 65.8918 18.4966 67.032C17.5329 68.1722 16.3733 68.7423 15.0178 68.7423C13.6623 68.7423 12.4974 68.1722 11.5231 67.032C10.5489 65.8918 10.0617 64.5134 10.0617 62.9002C10.0617 61.287 10.5489 59.9085 11.5231 58.7684C12.4974 57.6282 13.6623 57.0581 15.0178 57.0581C16.3733 57.0581 17.5329 57.6282 18.4966 58.7684ZM17.4393 66.9279C18.0094 65.8795 18.2954 64.531 18.2954 62.8843C18.2954 61.2376 18.0077 59.8874 17.4323 58.8337C16.8569 57.78 16.0521 57.2523 15.0196 57.2523C13.987 57.2523 13.184 57.78 12.6139 58.8337C12.0438 59.8891 11.7579 61.2393 11.7579 62.8843C11.7579 64.5293 12.0456 65.8777 12.621 66.9279C13.1963 67.978 14.0012 68.5022 15.0337 68.5022C16.0662 68.5022 16.8675 67.978 17.4393 66.9279Z" fill="#F4EB28"/>
<path d="M20.7495 68.5976C20.8571 67.6834 20.9595 67.048 21.0566 66.6932C21.2278 66.0472 21.5031 65.4913 21.8791 65.0235C22.255 64.5558 22.6804 64.1781 23.1534 63.8939C23.6264 63.6098 24.1029 63.3503 24.5812 63.1191C25.0596 62.8879 25.5502 62.6196 26.0497 62.3125C26.5492 62.0054 26.9516 61.6648 27.2517 61.2871C28.0477 60.4364 28.2471 59.598 27.8482 58.7685C27.5358 58.1119 26.9604 57.66 26.1203 57.4129C25.0649 57.1111 24.0765 57.2576 23.1499 57.8489C22.2356 58.4296 21.5684 59.3721 21.1484 60.6729V58.1066C21.7626 57.5683 22.6115 57.2329 23.6988 57.097C24.786 56.9629 25.8432 57.0758 26.8704 57.4359C27.8976 57.796 28.6107 58.359 29.0096 59.1232C29.0308 59.155 29.0625 59.2044 29.1066 59.2679C29.149 59.3332 29.209 59.4674 29.2849 59.6721C29.3608 59.8769 29.4067 60.0834 29.4226 60.2934C29.4385 60.5034 29.4085 60.7593 29.3343 61.0594C29.2584 61.3612 29.1243 61.6507 28.9302 61.9313C28.6389 62.3408 28.2136 62.722 27.6541 63.0768C27.0946 63.4315 26.5051 63.7527 25.8873 64.0369C25.2678 64.3228 24.6413 64.637 24.0076 64.9812C23.3722 65.3253 22.7704 65.786 22.2003 66.3614C21.6302 66.9368 21.1784 67.6022 20.8448 68.354H24.9448C25.785 68.354 26.6163 68.0964 27.4387 67.5792C28.2612 67.0621 28.8348 66.3949 29.1578 65.5777H29.239L28.5295 68.5958H20.7495V68.5976Z" fill="#F4EB28"/>
<path d="M30.9824 65.7083C31.2613 66.4513 31.8049 67.145 32.6132 67.791C33.4198 68.4369 34.0393 68.7599 34.47 68.7599C35.7496 68.7599 36.6568 68.324 37.1898 67.4521C37.7228 66.5802 37.7405 65.5583 37.2463 64.3846C36.2667 62.1042 34.4488 61.663 31.7908 63.0608L31.2418 63.352L32.292 57.2999H38.9742L38.4747 58.4613H32.292L31.5013 62.9479C32.3414 62.4537 33.1957 62.1254 34.0676 61.963C34.9395 61.8024 35.7249 61.7936 36.4238 61.9383C37.1227 62.083 37.7281 62.3795 38.24 62.8261C38.7518 63.2726 39.0819 63.8357 39.2319 64.5134C39.3502 65.0411 39.3254 65.5494 39.1595 66.0383C38.9919 66.5272 38.7324 66.9473 38.3759 67.2968C38.0211 67.6462 37.6152 67.9533 37.158 68.2163C36.7009 68.4811 36.2403 68.677 35.7778 68.8058C35.3154 68.9347 34.8953 69 34.5194 69C33.9493 69 33.3351 68.94 32.6785 68.8217C32.022 68.7035 31.5172 68.5587 31.1607 68.3858L30.9189 65.7065H30.9842L30.9824 65.7083Z" fill="#F4EB28"/>
</svg>
